<?xml version="1.0" encoding="utf-8"?>
<!-- Generator: Adobe Illustrator 25.2.0, SVG Export Plug-In . SVG Version: 6.00 Build 0)  -->
<svg version="1.1" id="Ebene_1" xmlns="http://www.w3.org/2000/svg" x="0px" y="0px"
	 viewBox="0 0 974.66 548.97" style="enable-background:new 0 0 974.66 548.97;" xml:space="preserve">
<style type="text/css">
	.st0{fill:#FFFFFF;}
</style>
<path class="st0" d="M368.27,523.31c-5.4,2.18-10.64,4.3-15.89,6.41c-17.51,7.05-35.51,12.48-54.09,15.75
	c-14.92,2.62-29.95,3.97-45.19,3.35c-18.83-0.76-37.45-2.9-55.86-6.87c-18.61-4.02-36.63-9.89-54.02-17.65
	c-16.03-7.15-31.14-15.88-45.22-26.37c-32.23-24-56.21-54.57-72.63-91.18c-11.13-24.8-18.09-50.75-21.82-77.62
	c-1.71-12.36-2.94-24.76-2.98-37.27c-0.01-4.48-0.67-8.97-0.58-13.44c0.52-25.06,3.88-49.72,10.97-73.81
	c6.96-23.63,16.8-45.96,30.31-66.61c5.84-8.93,12.29-17.4,19.72-25.11c6.82-7.07,13.8-13.94,21.69-19.84
	c16.83-12.59,35.47-21.18,56.24-24.49c23.75-3.78,46.81-1.5,68.43,9.92c13.62,7.2,24.9,17.14,34.14,29.43
	c0.4,0.53,0.83,1.04,1.27,1.54c0.1,0.12,0.28,0.17,1.03,0.61c21.94-6.84,44.67-12.05,68.25-13.35c23.62-1.31,46.79,1.43,69.76,5.82
	c7.29-3.39,14.48-6.85,21.77-10.1c12.5-5.58,25.56-9.6,38.72-13.24c8.68-2.41,17.22-5.17,25.4-8.97c1.31-0.61,2.55-1.37,3.4-1.83
	c-0.57-6.21-1.45-11.81-1.51-17.42c-0.16-14.53,4.74-27.44,13.72-38.77c4.58-5.77,10.52-9.61,17.73-11.46
	c5.04-1.29,9.95-0.86,14.7,0.99c6.33,2.45,8.86,7.69,9.68,14.02c1.45,11.17-2.2,20.6-9.69,28.8c-9.23,10.11-20.43,17.54-32.3,24.08
	c-1.43,0.79-2.87,1.57-4.65,2.54c2.3,5.92,5.65,10.8,9.78,15.16c7.39,7.81,16.61,12.75,26.6,16.3c13.69,4.88,27.69,6.34,42.26,4.94
	c26.36-2.54,51.1-10.42,75.16-20.97c23.51-10.31,46.02-22.64,68.97-34.1c17.6-8.79,35.38-17.13,53.93-23.71
	c14.92-5.29,30.21-9.22,45.88-11.67c9.55-1.49,19.13-2.32,28.8-2.22c2.8,0.03,5.61-0.77,8.41-0.72c21.2,0.43,41.26,5.19,59.11,17.02
	c24.43,16.19,40.01,38.6,45.97,67.47c2.31,11.2,2.92,22.5,0.87,33.75c-4.33,23.75-19.7,42.26-44.77,47.29
	c-10.34,2.07-20.53,0.86-30.66-1.37c-8.17-1.8-15.94-4.76-23.47-8.36c-1.34-0.64-2.71-1.23-4.15-1.88
	c-6.39,7.33-12.36,14.88-19.08,21.71c-6.64,6.75-13.7,13.18-21.16,18.99c-7.6,5.92-15.67,11.32-23.98,16.2
	c-8.16,4.79-16.78,8.86-25.38,12.85c-8.77,4.07-17.97,7-27.37,9.34c-9.24,2.3-18.6,3.53-28.68,3.98c-1.69,4.04-3.57,8.09-5.09,12.26
	c-5.81,15.97-11.23,32.09-13.68,48.98c-2.09,14.38-3.27,28.84,0.48,43.15c4.12,15.73,14.25,25.43,30.3,28.11
	c8.22,1.38,16.59,0.68,24.64-1.99c0.91-1.97-0.49-3.26-1.22-4.63c-5.29-9.89-9.41-20.24-12.09-31.13
	c-3.83-15.54-4.88-31.19-1.24-46.94c2.22-9.63,6.48-18.33,13.68-25.09c10.78-10.12,23.65-14.4,38.54-12.56
	c20.46,2.53,34.35,14.01,44,31.52c8.17,14.82,11.94,30.97,14.39,47.52c2.25,15.2,2.86,30.5,1.89,45.81
	c-0.57,8.95-1.99,17.85-4.46,26.53c-0.44,1.56-0.74,3.16-1.29,5.51c2.27-0.34,4.03-0.44,5.69-0.89c8.5-2.28,16.14-6.45,22.9-11.9
	c12.19-9.83,22.24-21.47,28.88-35.88c6.99-15.17,8.74-30.9,6.1-47.28c-1.81-11.2-6.34-21.33-12.03-31.01
	c-2.19-3.73-4.37-7.49-6.76-11.1c-7.49-11.34-10.15-23.74-8.5-37.16c2.03-16.5,8.87-30.23,22.97-39.72
	c6.77-4.56,14.37-7.14,22.38-8.02c9.8-1.07,19.65-0.83,29.22,1.99c12.79,3.78,21.62,11.7,24.56,25.05
	c2.18,9.9,1.26,19.56-4.54,28.23c-3.33,4.98-7.01,9.72-10.53,14.57c-4.43,6.11-7.15,12.73-6.29,20.5
	c0.86,7.7,5.65,13.54,12.92,15.46c5.3,1.4,10.27-0.18,12.81-5.03c1.98-3.76,3.08-8.02,4.26-12.15c0.63-2.21,0.49-4.63,0.9-6.91
	c0.47-2.59,1.51-2.92,4.97-1.64c0,2.67,0.27,5.49-0.06,8.24c-0.66,5.49-2.22,10.72-5.28,15.45c-6.4,9.87-17.34,9.78-24.99,5
	c-8.52-5.32-12.86-15.78-10.98-26.02c1.1-6.03,3.78-11.35,7.35-16.24c3.04-4.17,6.25-8.22,9.21-12.44
	c6.05-8.62,7.28-18.08,4.38-28.09c-2.17-7.47-6.86-13.09-13.99-16.05c-17.37-7.21-34.76-7.2-51.45,1.95
	c-10.58,5.8-16.94,15.26-20.15,26.85c-1.52,5.49-2.19,11.07-2.35,16.76c-0.24,8.43,2.15,16.09,6.29,23.31
	c4.63,8.09,9.46,16.07,13.82,24.31c7.13,13.48,9.04,28.07,8.48,43.12c-0.56,15.25-5.63,29-13.89,41.65
	c-9.34,14.31-21.13,26.12-36.27,34.33c-6.47,3.51-13.21,6.37-20.71,6.81c-0.47,0.03-0.93,0.32-1.7,0.61
	c-0.52,1.16-1.17,2.49-1.73,3.85c-6.41,15.46-15.67,29.01-27.77,40.52c-19.05,18.12-41.81,29.37-67.22,35.54
	c-18.98,4.61-38.2,5.11-57.56,3.46c-24.51-2.09-47.73-8.82-69.87-19.38c-11.29-5.38-22.1-11.63-32.52-18.55
	c-1.37-0.91-2.8-1.74-4.36-2.7c-16.69,12.06-35.27,17.71-55.62,18.54c-20.14,0.82-39.48-1.39-57.2-12.39
	c-22.63,17.96-46.71,33.29-73.02,45.94c1.91,2.22,4,3.17,6.01,4.16c22.01,10.8,44.57,11.09,67.45,3.27
	c10.83-3.7,19.14-10.6,24.32-20.82c2.2-0.8,3.71-0.03,5.24,1.61c-1.31,3.79-3.57,7.05-6.17,10.07
	c-6.71,7.81-15.28,12.71-25.01,15.81c-9.76,3.11-19.84,4.53-29.99,4.72c-10.92,0.2-21.47-2.46-31.56-6.62
	c-4.61-1.9-8.99-4.33-13.46-6.54C370.89,524.72,369.59,524,368.27,523.31z M362.48,519.11c-2.32-2.06-4.04-3.54-5.72-5.07
	c-10.59-9.63-18.41-20.97-21.66-35.14c-2.71-11.82-1.69-23.53,1.32-35.08c3.33-12.76,10.09-23.38,20.43-31.8
	c9.64-7.85,20.63-12.73,32.5-15.87c16.11-4.26,32.56-4.65,49.08-4.28c3.12,0.07,6.26-0.34,9.38-0.63c2.81-0.26,5.64-1.14,8.4-0.93
	c8.44,0.65,15.82,3.69,21.11,10.73c0.69,0.92,1.51,1.86,2.48,2.42c6.46,3.74,12.99,7.38,19.46,11.04
	c5.44-4.54,21.26-27.34,22.62-32.87c-17.51-2.36-33.18-8.51-44.5-22.88c-11.4,0.08-22.51,0.15-33.49-2.43
	c-11-2.58-20.85-7.35-29.42-13.9c-5.19,7.2-9.75,14.17-14.96,20.61c-7.82,9.65-16.97,17.94-28.43,23.13
	c-3.24,1.47-7.05,2.6-10.52,2.42c-5.99-0.32-11.71-2.28-16.75-5.88c-7.82-5.59-12.36-13.34-15.06-22.34
	c-2.1-7.01-1.18-14.22-1.24-21.36c-0.01-0.84-0.12-1.69-0.18-2.53c-3.63,3.87-6.56,7.88-8.95,12.2
	c-8.24,14.85-16.15,29.89-24.45,44.71c-10.87,19.42-23.53,37.54-39.9,52.81c-9.46,8.83-20.01,16.04-32.01,20.97
	c-10.76,4.43-21.98,6.21-33.66,6.1c-16.31-0.16-32.17-2.42-47.42-8.31c-28.64-11.06-47.8-31.33-58.07-60.11
	c-3.59-10.07-5.58-20.5-6.65-31.16c-1.19-11.86-0.94-23.59,1.54-35.26c3.48-16.35,10.55-30.94,22.19-42.93
	c17.5-18.02,39.2-25.13,64.02-22.6c14.91,1.52,25.04,9.78,31.01,23.45c2.65,6.06,3.86,12.43,4.35,18.88
	c1.01,13.3-2.69,25.16-12.68,34.37c-9.28,8.56-22.72,12.41-35.06,3.15c-0.91-0.69-1.99-1.15-3.25-1.87
	c-2.26,0.87-4.77,1.43-6.86,2.69c-10.4,6.25-11.54,15.39-3.84,23.04c1.87,1.86,3.98,3.59,6.24,4.93c9.68,5.73,19.86,8.05,31.08,4.92
	c12.83-3.59,23.8-10.1,33.26-19.4c10.71-10.53,18.58-23.05,25.54-36.18c8.6-16.22,15.49-33.21,21.84-50.39
	c10.87-29.44,24.07-57.77,39.42-85.12c10.23-18.23,22.27-35.14,36.43-50.53c9.72-10.57,20.37-20.11,31.9-28.68
	c2.47-1.83,4.83-3.81,7.6-6.01c-1.11-0.66-1.61-1.12-2.18-1.27c-6.26-1.67-12.46-3.69-18.81-4.81c-7.02-1.23-14.18-1.79-21.3-2.33
	c-5.79-0.44-11.65-0.87-17.42-0.49c-8.28,0.54-16.55,1.6-24.76,2.83c-12.18,1.82-24.27,4.18-36.05,7.88
	c-1.66,0.52-3.2,1.43-4.64,2.1c2.44,5.36,4.83,10.11,6.77,15.04c2.01,5.11,3.76,10.34,5.28,15.61c2.86,9.92,5.6,19.9,4.8,30.42
	c-0.29,3.81-0.61,7.62-0.94,11.42c-1.8,20.29-7.95,39.09-19.53,55.95c-6.27,9.12-13.67,17.28-22.86,23.51
	c-19.77,13.39-49.69,10.19-65.94-10.93c-6.37-8.28-9.17-17.96-8.38-28.13c1.51-19.33,8.76-36.85,19.39-52.9
	c9.44-14.25,21.13-26.57,34.36-37.36c10.99-8.97,22.58-17.07,35.69-22.75c1-0.43,1.86-1.18,2.8-1.79c-0.27-0.76-0.34-1.29-0.61-1.66
	c-4.87-6.38-10.41-12.16-16.66-17.18c-13.54-10.88-28.87-17.56-46.24-19.65c-19.03-2.29-37.59-0.53-55.51,6.23
	c-27,10.18-48.04,28.15-65.17,50.99c-11.15,14.87-19.97,31.04-27.13,48.19C12.32,211.59,6.23,245.61,6,280.74
	c-0.06,9.29,0.55,18.62,1.44,27.88c1.1,11.42,2.41,22.84,4.37,34.14c5.08,29.28,14.76,57,29.55,82.85
	c20.26,35.4,48.41,62.95,83.69,83.15c19.74,11.31,40.85,19.4,62.93,25.02c21.05,5.35,42.45,8.18,64.09,9.12
	c7.29,0.32,14.63-0.1,21.92-0.65c7.78-0.59,15.58-1.39,23.27-2.7c20.61-3.5,40.38-9.96,59.7-17.85
	C358.6,521.04,360.17,520.2,362.48,519.11z M382.3,273.41c4.33-3.31,8.07-6.3,11.95-9.08c1.98-1.42,3.46-3.02,4.14-5.39
	c0.41-1.43,1.07-2.8,1.65-4.18c7.76-18.24,18.81-34.09,34.32-46.59c18.55-14.95,39.64-21.03,63.42-18.32
	c12.25,1.4,22.77,5.87,31.5,14.58c0.78,0.78,1.8,1.33,2.75,2.01c15.57-11.29,32.67-18.19,51.59-20.83c0.32-2.03,0.54-3.83,0.89-5.61
	c1.41-7,2.32-14.16,4.39-20.97c7.99-26.33,24.71-44.88,50.46-54.99c12.31-4.83,25.15-7.48,38.25-9.13
	c11.49-1.44,22.94-1.3,34.32,0.5c17.61,2.78,34.15,8.71,49.63,17.57c1.85,1.06,3.79,1.95,5.35,2.75c0.83-0.33,1.17-0.41,1.44-0.59
	c1.96-1.26,3.9-2.56,5.88-3.8c12.51-7.87,25.81-13.85,40.38-16.7c5.89-1.15,11.87-2.05,17.85-1.09
	c13.86,2.21,25.61,15.38,24.64,31.72c-0.56,9.44-3.32,18.31-7.47,26.76c-1.68,3.42-3.41,6.82-5.06,10.09
	c0.33,0.52,0.45,0.88,0.7,1.05c0.83,0.55,1.68,1.09,2.57,1.52c9.05,4.36,18.49,7.59,28.4,9.26c8.59,1.45,17.21,1.77,25.74-0.62
	c19.04-5.33,30.9-17.87,35.73-36.78c5.11-20,1.98-39.4-6.29-57.98c-9.09-20.43-23.59-36.18-43.11-47.07
	c-13.06-7.29-27-12.22-42.13-12.64c-12.47-0.34-24.9,0.02-37.33,1.82c-13.05,1.9-25.81,4.86-38.42,8.55
	c-23.44,6.86-45.46,17.18-67.22,28.06c-22.64,11.32-44.96,23.3-67.84,34.1c-23.74,11.2-48.62,18.92-74.93,21.81
	c-18.34,2.02-35.88-0.06-52.71-7.48c-14.24-6.27-25.97-15.5-33.05-29.8c-0.35-0.7-1.01-1.24-1.64-1.98
	c-3.36,1.38-6.52,2.89-9.82,3.99c-10.11,3.35-20.27,6.56-30.43,9.77c-13.19,4.18-26.22,8.77-38.6,14.99
	c-0.94,0.47-1.72,1.24-3.3,2.39c2.74,0.97,4.73,1.67,6.71,2.39c9.44,3.41,18.49,7.59,26.49,13.76c7.07,5.45,13.12,11.82,17.08,19.91
	c2.81,5.75,4.66,11.82,4.26,18.3c-0.6,9.91-4.29,18.78-9.85,26.87c-8.51,12.37-19.56,22.19-31.61,30.96
	c-9.72,7.08-20.05,13.15-30.84,18.45c-3.24,1.59-6.55,3.11-9.47,5.93C372.63,250.52,378.4,261.07,382.3,273.41z M378.72,112.64
	c-1.98,1.89-3.85,3.52-5.54,5.33c-12.12,13.04-21.49,27.95-29.45,43.78c-10.81,21.51-18.26,44.29-25.15,67.28
	c-6.93,23.12-13.85,46.24-21.26,69.21c-6.66,20.63-16.68,39.55-30.96,56.03c-12.78,14.76-28.3,25.69-46.49,32.73
	c-16.83,6.52-34.37,8.75-52.34,8.92c-11.87,0.11-22.68-2.89-32.78-8.9c-10.48-6.24-18.25-14.79-22.87-26.24
	c-3.38-8.38-4.42-16.99-4.17-25.92c0.33-11.86,4.68-21.73,14.25-28.89c3.82-2.86,8.14-5.03,13.12-8.05
	c1.24-2.01,2.97-5.05,4.94-7.93c2.03-2.99,4.05-6.07,7.51-7.72c2.24,1.01,2.81,2.58,1.81,4.51c-0.68,1.31-1.78,2.39-2.68,3.58
	c-1.97,2.58-4.25,4.99-5.1,8.51c2.69,1.12,5.23,1.92,7.53,3.17c11.09,6.05,17.18,20.81,12.82,32.61c-1.37,3.7-3.45,7.15-5.22,10.7
	c-0.42,0.84-0.92,1.65-1.5,2.67c5.61,4.69,11.71,5.32,17.99,3.14c10.68-3.71,16.81-11.91,19.35-22.48
	c2.99-12.47,0.94-24.56-5.6-35.6c-4.53-7.65-11.43-12.45-20.24-14.19c-7.42-1.47-14.87-1.1-22.32,0
	c-16.59,2.45-30.58,9.64-41.8,22.27c-12.9,14.52-19.46,31.69-20.99,50.75c-1.14,14.17,0.18,28.25,3.96,42.06
	c3.91,14.32,9.95,27.57,19.56,38.98c12.98,15.41,29.6,25.08,48.96,30.2c9.19,2.43,18.57,3.5,28.06,4.31
	c12.22,1.04,23.9-0.48,35.26-4.7c18.31-6.79,32.7-18.98,45.18-33.62c14.57-17.1,25.85-36.34,36.01-56.25
	c9.79-19.18,20.4-37.8,34.11-54.51c1.04-1.27,1.77-2.81,2.49-4.3c2.73-5.71,5.48-11.41,8.05-17.19c3.18-7.14,6.5-14.25,9.18-21.58
	c2.64-7.22,4.12-14.76,3.15-22.55c-0.33-2.6-0.39-5.29-2.34-7.83c-1.88,0.22-3.82,0.56-5.77,0.64c-4.31,0.19-8.66,0.65-12.93,0.26
	c-4.84-0.44-8.61-4.73-8.68-8.9c-0.07-4.24,3.49-8.23,8.4-9.19c1.26-0.25,2.75-0.34,3.9,0.09c3.4,1.28,6.74,2.74,10,4.35
	c2.48,1.22,4.8,2.78,7.31,4.26c1.6-1.49,2.87-2.55,4-3.73c3.92-4.08,7.86-8.14,11.68-12.31c3.49-3.8,7.05-7.56,10.22-11.62
	c9.69-12.43,17.62-25.84,22.36-41c2.67-8.54,4.22-17.26,2.72-26.1C403.8,126.23,393.87,117.31,378.72,112.64z M566.58,463.61
	c0.85,0.77,1.39,1.41,2.06,1.86c10.4,6.95,21.22,13.17,32.5,18.56c16.94,8.09,34.73,13.5,53.2,16.68
	c15.65,2.69,31.48,3.37,47.27,2.18c16.53-1.25,32.53-5.34,47.78-11.91c24.49-10.56,44.67-26.32,58.45-49.53
	c3.02-5.1,6.03-10.25,7.89-16.68c-9.91-0.93-19.44-2.04-28.62-4.91c-9.09-2.84-17.73-6.71-25.82-11.8
	c-8.2-5.15-15-11.93-21.54-18.77c-12.13,4.52-24.02,7.05-36.57,5.92c-7.49-0.67-14.89-1.7-22.04-3.99
	c-24.59-7.88-40.12-24.16-45.56-49.61c-1.95-9.11-3.16-18.3-2-27.68c0.71-5.77,0.62-11.66,1.64-17.36
	c2.79-15.62,7.32-30.75,13.93-45.22c0.39-0.84,0.46-1.83,0.78-3.16c-7.64-2.79-15.08-5.51-22.47-8.21
	c-0.36,0.25-0.72,0.37-0.89,0.63c-0.47,0.68-0.91,1.39-1.27,2.14c-8.17,17.25-18.6,33.08-30.25,48.13
	c-6.22,8.04-12.95,15.66-20.54,22.45c-6.7,5.99-13.65,11.68-20.36,17.66c-1.42,1.27-2.7,3.03-3.31,4.81
	c-3.79,11.24-8.61,22.01-13.83,32.63c-0.48,0.98-0.74,2.07-1.31,3.67c2.01,0.29,3.63,0.84,5.17,0.68
	c5.94-0.62,11.91-1.21,17.78-2.29c14.4-2.65,26.18-10.37,36.99-19.8c5.9-5.14,11.67-10.43,17.54-15.6c1.04-0.92,1.93-2.47,3.99-1.49
	c1.2,2.62-0.43,4.72-1.76,6.73c-2.7,4.08-4.67,8.41-5.78,13.19c-1.58,6.81-3.51,13.54-4.94,20.37c-2.19,10.42-3.75,20.97-6.16,31.34
	c-4.35,18.74-11.94,36-24.79,50.62C571.44,458.41,569.05,460.91,566.58,463.61z M760.17,119.38c-1.04-0.93-1.25-1.22-1.54-1.35
	c-21.45-9.72-43.75-14.69-67.42-12.23c-19.3,2.01-36.82,8.91-52.76,19.74c-16.69,11.34-27.69,26.71-31.36,46.84
	c-0.7,3.85-1.33,7.75-1.32,11.29c0.64,0.51,0.76,0.67,0.91,0.71c0.79,0.22,1.59,0.48,2.4,0.61c6.81,1.15,11.96,4.73,15.64,10.55
	c4.03,6.38,5.95,13.38,5.97,20.85c0.02,5.45-0.39,10.91-0.62,16.77c7.09,4.12,14.87,7.15,23.71,8.84
	C677.97,191.4,714.5,151.63,760.17,119.38z M240.19,115.52c-5.71,3.02-11.15,5.54-16.22,8.65c-15.13,9.28-28.63,20.63-40.71,33.59
	c-11.54,12.39-21.25,26.02-27.03,42.16c-3.66,10.23-6.86,20.54-6.41,31.58c0.3,7.24,2.39,13.91,7.99,18.76
	c5.84,5.05,12.94,7.53,20.65,7.73c10.46,0.27,19.48-3.87,27.68-9.93c9.19-6.8,16.81-15.12,23.06-24.69
	c13.74-21.01,23.36-43.28,21.85-69.17c-0.67-11.58-2.53-22.81-7.41-33.39C242.85,119.09,241.56,117.59,240.19,115.52z
	 M368.57,516.16c18.75-6.86,67.82-37.56,74.13-46.24c-0.03-0.16-0.02-0.36-0.11-0.47c-0.51-0.65-1.01-1.32-1.58-1.91
	c-6.11-6.35-10.48-13.71-13.11-22.14c-2.51-8.05-3.19-16.26-3.18-24.65c0.01-7.68,2.31-14.36,7.14-20.26
	c0.67-0.82,1.14-1.81,1.93-3.09c-1.7-0.13-2.85-0.33-3.99-0.28c-3.31,0.16-6.62,0.57-9.93,0.64c-13.43,0.29-26.46,2.67-39.08,7.28
	c-9.84,3.59-18.82,8.75-25.85,16.54c-13.12,14.55-17.24,32.22-14.99,51.12C342.2,491.59,353.53,505.15,368.57,516.16z M698.41,242.5
	c3.49,1.46,3.49,1.44,5.66,1.19c15.11-1.76,28.97-7.11,42.13-14.56c12.2-6.9,23.53-15,34.31-23.95
	c15.55-12.92,29.45-27.4,41.86-43.33c0.68-0.87,1.07-1.96,1.82-3.38c-14.23-8.6-27.62-18.05-42.17-26.27
	C749.1,165.57,720.07,201.16,698.41,242.5z M817.92,418.51c0.55-1.24,1.15-2.25,1.46-3.34c2.68-9.46,4.66-19.06,5.13-28.9
	c0.71-14.63,0.42-29.23-1.59-43.79c-2.06-14.91-5.15-29.52-11.8-43.12c-4.8-9.81-10.94-18.66-20.39-24.69
	c-1.61-1.03-3.36-1.84-5.05-2.76c0.11,1.75,0.77,2.82,1.43,3.88c0.7,1.13,1.48,2.22,2.08,3.4c7.15,14.06,8.93,28.76,5.07,44.08
	c-0.53,2.1-1.12,4.18-1.77,6.24c-7.48,23.97-20.84,43.33-43.51,55.38c-0.96,0.51-1.76,1.31-2.62,1.97
	C759.69,405.89,792.71,419.46,817.92,418.51z M474.67,352.67c-0.19-1.01-0.21-1.83-0.49-2.54c-6.38-16.53-7.84-33.61-5.07-50.99
	c2.57-16.12,8.3-31.13,17.55-44.69c0.7-1.03,1.18-2.2,1.77-3.33c-12.59-5.35-50.24-4.11-62.48,2.13c-1.29,4.23-2.88,8.78-4.05,13.43
	c-3.86,15.41-4.6,30.91-0.23,46.33c5.71,20.16,18.14,33.7,39.02,38.55C465.17,352.58,469.73,353.43,474.67,352.67z M740.03,379.17
	c5.5-0.92,9.65-3.71,13.63-6.67c9.83-7.33,17.95-16.27,24.51-26.64c7.64-12.07,12.34-25,11.83-39.51
	c-0.24-6.9-1.51-13.54-4.93-19.64c-3.87-6.91-11.86-12.6-22.68-10.94c-7.39,1.13-13.54,4.55-18.74,9.67
	c-13.82,13.62-19.23,30.56-17.78,49.49c1.06,13.84,5.39,27.02,11.48,39.55C738.12,376.08,739.11,377.58,740.03,379.17z
	 M619.57,236.29c-14.96-7.59-27.45-17.41-32.24-34.1c-10.33,1.97-31.21,17.17-37.76,27.29c0.23,0.51,0.44,1.14,0.77,1.69
	c9.56,16.05,12.11,33.65,10.98,51.9c-0.69,11.1-2.38,22.12-4.92,32.99c-0.2,0.85-0.15,1.76-0.23,2.94
	C575.5,306.12,609.98,263.26,619.57,236.29z M521.63,267.58c-0.87,1.5-1.75,2.86-2.47,4.3c-8.76,17.51-15.78,35.5-16.98,55.39
	c-0.36,5.9,0.4,11.55,1.16,17.27c0.14,1.07,0.78,2.07,1.28,3.33c1.55-0.35,2.82-0.59,4.08-0.92c12.93-3.34,24.28-9.85,35.19-17.32
	c2.64-1.81,4.17-3.95,4.97-7.07c2.82-10.96,5-22.01,6.11-33.3c1.26-12.84,1.16-25.55-2.26-38.07c-1.62-5.94-3.75-11.69-7.8-17.15
	c-7.9,8.44-14.06,17.72-19.78,27.48c4.93,5.24,10.58,9.2,14.26,15.31c-1.26,1.09-2.35,2.03-3.79,3.28
	c-2.19-2.36-4.16-4.55-6.21-6.66C527.22,271.23,525.09,268.91,521.63,267.58z M525.81,210.24c-0.66-0.83-0.89-1.31-1.27-1.56
	c-1.4-0.89-2.82-1.77-4.29-2.53c-11.76-6.05-24.34-6.06-37.03-4.78c-6.32,0.64-12.33,2.59-18.02,5.48
	c-15.09,7.66-25.72,19.68-33.59,34.38c-0.5,0.94-0.67,2.05-1.2,3.75c10.84-2.19,21.17-3.28,31.61-3.12
	c10.45,0.16,20.78,1.41,31.11,3.4C503.07,232.54,513.41,220.67,525.81,210.24z M504.92,418.45c9.88,7.39,19.79,14.79,30,22.42
	c16.34-19.06,26.03-40.75,33.05-65.06c-13,4.38-25.32,6.64-37.82,6.2C521.74,394.17,513.52,406.03,504.92,418.45z M407.92,336.33
	c-6.78-8.79-10.16-19.31-12.49-30.32c-2.35-11.1-2.13-22.28-0.89-34.64c-4.36,3.28-7.75,5.83-11.23,8.45
	c0.86,8.58-1.97,16.32-3.98,24.2c-3,11.76-6.38,23.43-9.15,35.24c-1.56,6.62-2.58,13.42-0.7,20.25c1.68,6.08,6.59,9.06,12.58,7.25
	c2.19-0.66,4.36-1.74,6.24-3.05c9.18-6.4,14.7-15.67,19.46-25.47C407.97,337.82,407.86,337.25,407.92,336.33z M827.75,153.66
	c0.93-0.82,1.56-1.16,1.88-1.7c3.22-5.42,6.58-10.78,9.53-16.35c3.05-5.74,5.48-11.84,6.13-18.34c0.96-9.56-3.69-16.44-14.01-16.23
	c-3.24,0.06-6.62,0.84-9.66,2c-9.75,3.72-18.01,9.9-25.84,16.64c-2.96,2.55-6.14,4.94-8.79,8.7
	C800.92,136.88,814.06,145.74,827.75,153.66z M477.2,65.32c1.54-0.63,2.8-1,3.92-1.63c3.62-2.04,7.31-3.98,10.74-6.3
	c8.4-5.67,16.66-11.53,22.77-19.86c5.32-7.25,7.25-15.21,5.11-23.97c-1.07-4.38-3.86-7.09-8.51-8.01
	c-9.15-1.81-16.63,1.62-22.3,8.14c-11.89,13.69-16.22,29.79-13.13,47.76C475.99,62.67,476.64,63.83,477.2,65.32z M458.06,466.17
	c2.45,1.13,4.17,2.05,5.97,2.74c7.28,2.8,14.75,1.93,22.12,0.66c12.68-2.19,24.12-7.43,34.35-15.19c3.52-2.67,7.16-5.29,10.1-9.28
	c-9.76-7.72-19.39-15.2-29.67-22.05c-7.13,7.62-13.77,15.05-20.78,22.1C473.18,452.17,465.83,458.81,458.06,466.17z M482.05,411.07
	c-0.8,0.87-0.97,0.97-1.02,1.12c-0.26,0.79-0.51,1.58-0.71,2.38c-2.06,8.12-6.71,13.52-15.31,15.11
	c-7.23,1.34-12.13,6.14-15.76,12.1c-4.2,6.87-2.19,15.37,4.49,19.98c7.63-6.26,15.05-12.9,21.96-20.07
	c6.84-7.1,14.14-13.85,19.94-22.46C490.81,416.33,486.46,413.72,482.05,411.07z M529.22,370.88c1.59-3.12,3.37-6.46,5.01-9.87
	c1.65-3.45,3.17-6.96,4.72-10.45c3.39-7.65,3.39-7.66,2.93-10.46c-5.57,2.95-10.98,6.22-16.72,8.75c-5.88,2.58-12.08,4.43-18.12,6.6
	C509.24,364.04,518.62,370.69,529.22,370.88z M622.33,225.85c1.12-3.4,0.84-6.89,0.28-10.24c-0.99-5.94-2.72-11.65-7.49-15.85
	c-2.63-2.32-5.55-3.45-9-2.28C605.11,206.6,614.62,223.22,622.33,225.85z"/>
</svg>
